<svg xmlns="http://www.w3.org/2000/svg" xmlns:xlink="http://www.w3.org/1999/xlink" width="500" zoomAndPan="magnify" viewBox="0 0 375 374.999991" height="500" preserveAspectRatio="xMidYMid meet" version="1.0"><defs><g/><clipPath id="41ae392ad3"><path d="M 140 145 L 229 145 L 229 186 L 140 186 Z M 140 145 " clip-rule="nonzero"/></clipPath><clipPath id="f40c3af786"><path d="M 137.234375 148.882812 L 187.503906 106.496094 L 235.085938 162.566406 L 184.820312 204.957031 Z M 137.234375 148.882812 " clip-rule="nonzero"/></clipPath><clipPath id="385bf569b6"><path d="M 144.167969 186.429688 L 139.023438 141.253906 L 228.253906 148.765625 L 233.398438 193.941406 Z M 144.167969 186.429688 " clip-rule="nonzero"/></clipPath><clipPath id="92bae42c4a"><path d="M 144.167969 186.429688 L 139.023438 141.253906 L 228.253906 148.765625 L 233.398438 193.941406 Z M 144.167969 186.429688 " clip-rule="nonzero"/></clipPath></defs><rect x="-37.5" width="450" fill="#ffffff" y="-37.499999" height="449.999989" fill-opacity="1"/><rect x="-37.5" width="450" fill="#ffffff" y="-37.499999" height="449.999989" fill-opacity="1"/><rect x="-37.5" width="450" fill="#ffffff" y="-37.499999" height="449.999989" fill-opacity="1"/><g clip-path="url(#41ae392ad3)"><g clip-path="url(#f40c3af786)"><g clip-path="url(#385bf569b6)"><g clip-path="url(#92bae42c4a)"><path fill="#333d31" d="M 227.980469 154.5625 C 211.902344 147.390625 190.460938 148.003906 186.890625 166.082031 C 186.664062 167.183594 186.515625 168.332031 186.421875 169.515625 C 186.058594 168.296875 185.640625 167.097656 185.164062 165.929688 C 177.355469 146.882812 155.363281 142.625 140.625 147.203125 C 139.890625 147.425781 139.847656 148.453125 140.550781 149.035156 C 153.714844 160.09375 155.1875 187.351562 183.097656 177.9375 C 176.839844 162.714844 166.429688 152.734375 150.140625 150.148438 C 171.644531 151.863281 184.398438 163.335938 187.863281 185.148438 C 187.894531 185.351562 188.101562 185.425781 188.226562 185.347656 C 188.367188 185.445312 188.554688 185.394531 188.546875 185.199219 C 187.0625 163.554688 197.421875 154.027344 218.953125 155.941406 C 202.941406 155.800781 194.625 164.214844 191.742188 178.664062 C 222.351562 193 217.59375 165.457031 228.472656 156.433594 C 229.050781 155.945312 228.78125 154.90625 227.976562 154.550781 " fill-opacity="1" fill-rule="evenodd"/></g></g></g></g><g fill="#333d31" fill-opacity="1"><g transform="translate(61.078858, 214.399073)"><g><path d="M 16 -1.71875 C 15.738281 -1.4375 15.269531 -1.144531 14.59375 -0.84375 C 13.925781 -0.539062 13.1875 -0.289062 12.375 -0.09375 C 11.570312 0.09375 10.835938 0.1875 10.171875 0.1875 C 8.367188 0.1875 6.785156 -0.160156 5.421875 -0.859375 C 4.054688 -1.566406 3.003906 -2.539062 2.265625 -3.78125 C 1.523438 -5.019531 1.15625 -6.4375 1.15625 -8.03125 C 1.15625 -10.007812 1.546875 -11.6875 2.328125 -13.0625 C 3.117188 -14.445312 4.175781 -15.484375 5.5 -16.171875 C 6.832031 -16.859375 8.296875 -17.203125 9.890625 -17.203125 C 10.929688 -17.203125 11.90625 -17.085938 12.8125 -16.859375 C 13.71875 -16.628906 14.519531 -16.328125 15.21875 -15.953125 L 14.125 -12.828125 C 13.675781 -13.078125 13.0625 -13.304688 12.28125 -13.515625 C 11.507812 -13.722656 10.863281 -13.828125 10.34375 -13.828125 C 8.488281 -13.828125 7.070312 -13.363281 6.09375 -12.4375 C 5.113281 -11.507812 4.625 -10.140625 4.625 -8.328125 C 4.625 -7.273438 4.863281 -6.359375 5.34375 -5.578125 C 5.820312 -4.804688 6.488281 -4.210938 7.34375 -3.796875 C 8.195312 -3.378906 9.171875 -3.171875 10.265625 -3.171875 C 11.316406 -3.171875 12.097656 -3.316406 12.609375 -3.609375 L 12.609375 -5.671875 L 9.671875 -5.671875 L 9.671875 -8.90625 L 16 -8.90625 Z M 16 -1.71875 "/></g></g></g><g fill="#333d31" fill-opacity="1"><g transform="translate(78.697196, 214.399073)"><g><path d="M 1.15625 -8.484375 C 1.15625 -10.023438 1.539062 -11.46875 2.3125 -12.8125 C 3.09375 -14.15625 4.148438 -15.222656 5.484375 -16.015625 C 6.828125 -16.804688 8.273438 -17.203125 9.828125 -17.203125 C 11.378906 -17.203125 12.820312 -16.804688 14.15625 -16.015625 C 15.5 -15.222656 16.566406 -14.15625 17.359375 -12.8125 C 18.148438 -11.46875 18.546875 -10.023438 18.546875 -8.484375 C 18.546875 -6.910156 18.148438 -5.460938 17.359375 -4.140625 C 16.566406 -2.816406 15.5 -1.765625 14.15625 -0.984375 C 12.820312 -0.203125 11.378906 0.1875 9.828125 0.1875 C 8.253906 0.1875 6.800781 -0.203125 5.46875 -0.984375 C 4.144531 -1.765625 3.09375 -2.816406 2.3125 -4.140625 C 1.539062 -5.460938 1.15625 -6.910156 1.15625 -8.484375 Z M 4.625 -8.484375 C 4.625 -7.492188 4.859375 -6.582031 5.328125 -5.75 C 5.796875 -4.925781 6.4375 -4.269531 7.25 -3.78125 C 8.0625 -3.289062 8.957031 -3.046875 9.9375 -3.046875 C 10.894531 -3.046875 11.765625 -3.289062 12.546875 -3.78125 C 13.335938 -4.269531 13.957031 -4.925781 14.40625 -5.75 C 14.851562 -6.570312 15.078125 -7.484375 15.078125 -8.484375 C 15.078125 -9.503906 14.84375 -10.429688 14.375 -11.265625 C 13.914062 -12.097656 13.289062 -12.753906 12.5 -13.234375 C 11.707031 -13.722656 10.820312 -13.96875 9.84375 -13.96875 C 8.875 -13.96875 7.992188 -13.722656 7.203125 -13.234375 C 6.410156 -12.753906 5.78125 -12.097656 5.3125 -11.265625 C 4.851562 -10.429688 4.625 -9.503906 4.625 -8.484375 Z M 4.625 -8.484375 "/></g></g></g><g fill="#333d31" fill-opacity="1"><g transform="translate(98.396437, 214.399073)"><g><path d="M 5.203125 -6.296875 C 5.203125 -5.753906 5.363281 -5.234375 5.6875 -4.734375 C 6.007812 -4.242188 6.441406 -3.84375 6.984375 -3.53125 C 7.523438 -3.226562 8.101562 -3.078125 8.71875 -3.078125 C 9.382812 -3.078125 9.992188 -3.226562 10.546875 -3.53125 C 11.097656 -3.84375 11.53125 -4.242188 11.84375 -4.734375 C 12.164062 -5.234375 12.328125 -5.753906 12.328125 -6.296875 L 12.328125 -17.015625 L 15.625 -17.015625 L 15.625 -6.21875 C 15.625 -5 15.316406 -3.898438 14.703125 -2.921875 C 14.085938 -1.941406 13.25 -1.175781 12.1875 -0.625 C 11.132812 -0.0820312 9.976562 0.1875 8.71875 0.1875 C 7.457031 0.1875 6.300781 -0.0820312 5.25 -0.625 C 4.195312 -1.175781 3.363281 -1.941406 2.75 -2.921875 C 2.144531 -3.898438 1.84375 -5 1.84375 -6.21875 L 1.84375 -17.015625 L 5.203125 -17.015625 Z M 5.203125 -6.296875 "/></g></g></g><g fill="#333d31" fill-opacity="1"><g transform="translate(115.87605, 214.399073)"><g><path d="M 11.375 0 L 7.796875 -5.40625 L 5.546875 -5.40625 L 5.546875 0 L 2.203125 0 L 2.203125 -17.015625 L 7.359375 -17.015625 C 9.460938 -17.015625 11.097656 -16.5 12.265625 -15.46875 C 13.429688 -14.445312 14.015625 -13.050781 14.015625 -11.28125 C 14.015625 -10.238281 13.796875 -9.253906 13.359375 -8.328125 C 12.921875 -7.410156 12.242188 -6.691406 11.328125 -6.171875 L 15.28125 0 Z M 5.546875 -8.65625 L 7.9375 -8.65625 C 8.84375 -8.65625 9.503906 -8.921875 9.921875 -9.453125 C 10.335938 -9.984375 10.546875 -10.554688 10.546875 -11.171875 C 10.546875 -11.785156 10.367188 -12.375 10.015625 -12.9375 C 9.660156 -13.5 8.972656 -13.78125 7.953125 -13.78125 L 5.546875 -13.78125 Z M 5.546875 -8.65625 "/></g></g></g><g fill="#333d31" fill-opacity="1"><g transform="translate(131.737182, 214.399073)"><g><path d="M 19.71875 -17.71875 L 19.71875 0 L 16.375 0 L 16.375 -8.109375 L 10.828125 -0.234375 L 10.78125 -0.234375 L 5.4375 -7.609375 L 5.4375 0 L 2.203125 0 L 2.203125 -17.71875 L 2.21875 -17.71875 L 10.84375 -5.484375 L 19.671875 -17.71875 Z M 19.71875 -17.71875 "/></g></g></g><g fill="#333d31" fill-opacity="1"><g transform="translate(153.656061, 214.399073)"><g><path d="M 13.8125 -17.015625 L 13.8125 -13.78125 L 5.546875 -13.78125 L 5.546875 -10.15625 L 12.859375 -10.15625 L 12.859375 -6.921875 L 5.546875 -6.921875 L 5.546875 -3.234375 L 14.125 -3.234375 L 14.125 0 L 2.203125 0 L 2.203125 -17.015625 Z M 13.8125 -17.015625 "/></g></g></g><g fill="#333d31" fill-opacity="1"><g transform="translate(169.054761, 214.399073)"><g><path d="M 12.515625 -17.015625 L 12.515625 -13.78125 L 8.375 -13.78125 L 8.375 0 L 5.015625 0 L 5.015625 -13.78125 L 1.046875 -13.78125 L 1.046875 -17.015625 Z M 12.515625 -17.015625 "/></g></g></g><g fill="#333d31" fill-opacity="1"><g transform="translate(182.603775, 214.399073)"><g/></g></g><g fill="#333d31" fill-opacity="1"><g transform="translate(190.11816, 214.399073)"><g><path d="M 2.203125 -17.015625 L 7.28125 -17.015625 C 9.457031 -17.015625 11.242188 -16.59375 12.640625 -15.75 C 14.046875 -14.914062 15.066406 -13.832031 15.703125 -12.5 C 16.347656 -11.164062 16.671875 -9.734375 16.671875 -8.203125 C 16.671875 -6.578125 16.285156 -5.140625 15.515625 -3.890625 C 14.742188 -2.640625 13.707031 -1.675781 12.40625 -1 C 11.101562 -0.332031 9.671875 0 8.109375 0 L 2.203125 0 Z M 7.53125 -3.234375 C 9.28125 -3.234375 10.660156 -3.679688 11.671875 -4.578125 C 12.691406 -5.472656 13.203125 -6.757812 13.203125 -8.4375 C 13.203125 -9.789062 12.921875 -10.867188 12.359375 -11.671875 C 11.796875 -12.472656 11.140625 -13.03125 10.390625 -13.34375 C 9.640625 -13.65625 8.9375 -13.8125 8.28125 -13.8125 L 5.546875 -13.8125 L 5.546875 -3.234375 Z M 7.53125 -3.234375 "/></g></g></g><g fill="#333d31" fill-opacity="1"><g transform="translate(207.944586, 214.399073)"><g><path d="M 10.609375 -3.328125 L 4.96875 -3.328125 L 3.578125 0 L 0.28125 0 L 7.953125 -17.6875 L 8.140625 -17.6875 L 15.8125 0 L 11.9375 0 Z M 9.5 -6.15625 L 7.859375 -10.296875 L 6.15625 -6.15625 Z M 9.5 -6.15625 "/></g></g></g><g fill="#333d31" fill-opacity="1"><g transform="translate(224.036923, 214.399073)"><g><path d="M 17.53125 -17.015625 L 17.53125 0.6875 L 17.4375 0.6875 L 5.53125 -10.0625 L 5.59375 0 L 2.203125 0 L 2.203125 -17.6875 L 2.328125 -17.6875 L 14.21875 -6.78125 L 14.15625 -17.015625 Z M 17.53125 -17.015625 "/></g></g></g><g fill="#333d31" fill-opacity="1"><g transform="translate(243.759292, 214.399073)"><g><path d="M 19.71875 -17.71875 L 19.71875 0 L 16.375 0 L 16.375 -8.109375 L 10.828125 -0.234375 L 10.78125 -0.234375 L 5.4375 -7.609375 L 5.4375 0 L 2.203125 0 L 2.203125 -17.71875 L 2.21875 -17.71875 L 10.84375 -5.484375 L 19.671875 -17.71875 Z M 19.71875 -17.71875 "/></g></g></g><g fill="#333d31" fill-opacity="1"><g transform="translate(265.678171, 214.399073)"><g><path d="M 10.609375 -3.328125 L 4.96875 -3.328125 L 3.578125 0 L 0.28125 0 L 7.953125 -17.6875 L 8.140625 -17.6875 L 15.8125 0 L 11.9375 0 Z M 9.5 -6.15625 L 7.859375 -10.296875 L 6.15625 -6.15625 Z M 9.5 -6.15625 "/></g></g></g><g fill="#333d31" fill-opacity="1"><g transform="translate(281.770509, 214.399073)"><g><path d="M 11.375 0 L 7.796875 -5.40625 L 5.546875 -5.40625 L 5.546875 0 L 2.203125 0 L 2.203125 -17.015625 L 7.359375 -17.015625 C 9.460938 -17.015625 11.097656 -16.5 12.265625 -15.46875 C 13.429688 -14.445312 14.015625 -13.050781 14.015625 -11.28125 C 14.015625 -10.238281 13.796875 -9.253906 13.359375 -8.328125 C 12.921875 -7.410156 12.242188 -6.691406 11.328125 -6.171875 L 15.28125 0 Z M 5.546875 -8.65625 L 7.9375 -8.65625 C 8.84375 -8.65625 9.503906 -8.921875 9.921875 -9.453125 C 10.335938 -9.984375 10.546875 -10.554688 10.546875 -11.171875 C 10.546875 -11.785156 10.367188 -12.375 10.015625 -12.9375 C 9.660156 -13.5 8.972656 -13.78125 7.953125 -13.78125 L 5.546875 -13.78125 Z M 5.546875 -8.65625 "/></g></g></g><g fill="#333d31" fill-opacity="1"><g transform="translate(297.631652, 214.399073)"><g><path d="M 5.5 -10.109375 L 6.015625 -10.75 L 11.5625 -17.015625 L 15.90625 -17.015625 L 8.875 -9.390625 L 15.9375 0 L 11.671875 0 L 6.421875 -7.265625 L 5.59375 -6.421875 L 5.59375 0 L 2.203125 0 L 2.203125 -17.015625 L 5.59375 -17.015625 L 5.59375 -10.96875 Z M 5.5 -10.109375 "/></g></g></g></svg>